<?xml version="1.0" encoding="UTF-8"?>
<svg id="Layer_1" data-name="Layer 1" xmlns="http://www.w3.org/2000/svg" viewBox="0 0 512 512">
  <defs>
    <style>
      .cls-1 {
        fill: #fff;
      }

      .cls-2 {
        fill: #5682b0;
      }

      .cls-2, .cls-3 {
        fill-rule: evenodd;
      }

      .cls-3 {
        fill: #19234f;
      }
    </style>
  </defs>
  <rect class="cls-1" width="512" height="512" rx="72.57" ry="72.57"/>
  <g>
    <path class="cls-3" d="M386.52,184.94v199.15l-130.52,75.31-130.52-75.31V177.06l46.13-26.65v207.03l61.32,35.37v-123.2l23.14-13.36,23-13.29v149.85l61.32-35.37v-81.92l-18.49-10.69v-42.54c21.52-12.45,43.11-24.89,64.63-37.34h0Z"/>
    <polygon class="cls-2" points="201.71 249.42 222.67 256.53 222.67 235.08 201.71 227.98 201.71 249.42"/>
    <polygon class="cls-2" points="201.71 217.36 222.67 224.39 222.67 202.94 201.71 195.91 201.71 217.36"/>
    <polygon class="cls-2" points="201.71 185.22 222.67 192.32 222.67 170.88 201.71 163.77 201.71 185.22"/>
    <polygon class="cls-3" points="295.17 52.6 295.17 249.42 279.07 240.14 279.07 177.13 201.71 151.05 201.71 98.94 295.17 52.6"/>
  </g>
</svg>